<mxfile host="Electron" agent="Mozilla/5.0 (Windows NT 10.0; Win64; x64) AppleWebKit/537.36 (KHTML, like Gecko) draw.io/26.0.16 Chrome/132.0.6834.196 Electron/34.2.0 Safari/537.36" version="26.0.16">
  <diagram name="Page-1" id="FfDvVnpgteF9OjcdlrWo">
    <mxGraphModel dx="900" dy="566" grid="1" gridSize="10" guides="1" tooltips="1" connect="1" arrows="1" fold="1" page="1" pageScale="1" pageWidth="827" pageHeight="1169" math="0" shadow="0">
      <root>
        <mxCell id="0" />
        <mxCell id="1" parent="0" />
        <mxCell id="LyVmAa3Y3DXHs4rt1gu2-14" value="" style="rounded=1;whiteSpace=wrap;html=1;fillColor=#FCFCFC;dashed=1;arcSize=2;labelPosition=center;verticalLabelPosition=middle;align=center;verticalAlign=middle;" vertex="1" parent="1">
          <mxGeometry x="370" y="140" width="370" height="300" as="geometry" />
        </mxCell>
        <mxCell id="LyVmAa3Y3DXHs4rt1gu2-9" value="" style="rounded=1;whiteSpace=wrap;html=1;fillColor=#f5f5f5;fontColor=#333333;strokeColor=#666666;arcSize=9;" vertex="1" parent="1">
          <mxGeometry x="160" y="222" width="160" height="120" as="geometry" />
        </mxCell>
        <mxCell id="LyVmAa3Y3DXHs4rt1gu2-8" value="" style="rounded=1;whiteSpace=wrap;html=1;fillColor=#f5f5f5;fontColor=#333333;strokeColor=#666666;arcSize=9;" vertex="1" parent="1">
          <mxGeometry x="470" y="150" width="260" height="120" as="geometry" />
        </mxCell>
        <mxCell id="LyVmAa3Y3DXHs4rt1gu2-7" value="" style="rounded=1;whiteSpace=wrap;html=1;fillColor=#f5f5f5;fontColor=#333333;strokeColor=#666666;arcSize=9;" vertex="1" parent="1">
          <mxGeometry x="470" y="310" width="260" height="120" as="geometry" />
        </mxCell>
        <mxCell id="LyVmAa3Y3DXHs4rt1gu2-1" value="&lt;b&gt;nicold-apim.azure-api.net&lt;/b&gt;" style="image;aspect=fixed;html=1;points=[];align=center;fontSize=12;image=img/lib/azure2/app_services/API_Management_Services.svg;" vertex="1" parent="1">
          <mxGeometry x="210" y="260" width="54.17" height="50" as="geometry" />
        </mxCell>
        <mxCell id="LyVmAa3Y3DXHs4rt1gu2-2" value="nicold-aoai-001.openai.azure.com" style="image;aspect=fixed;html=1;points=[];align=left;fontSize=12;image=img/lib/azure2/ai_machine_learning/Azure_OpenAI.svg;labelPosition=right;verticalLabelPosition=middle;verticalAlign=middle;" vertex="1" parent="1">
          <mxGeometry x="478" y="160" width="40" height="40" as="geometry" />
        </mxCell>
        <mxCell id="LyVmAa3Y3DXHs4rt1gu2-3" value="nicold-aoai-002.openai.azure.com" style="image;aspect=fixed;html=1;points=[];align=left;fontSize=12;image=img/lib/azure2/ai_machine_learning/Azure_OpenAI.svg;labelPosition=right;verticalLabelPosition=middle;verticalAlign=middle;" vertex="1" parent="1">
          <mxGeometry x="478" y="320" width="40" height="40" as="geometry" />
        </mxCell>
        <mxCell id="LyVmAa3Y3DXHs4rt1gu2-4" value="model: &lt;b&gt;gpt4o-001&lt;/b&gt;" style="html=1;verticalLabelPosition=bottom;align=center;labelBackgroundColor=#ffffff;verticalAlign=top;strokeWidth=2;strokeColor=#0080F0;shadow=0;dashed=0;shape=mxgraph.ios7.icons.cube;" vertex="1" parent="1">
          <mxGeometry x="570" y="210" width="30" height="30" as="geometry" />
        </mxCell>
        <mxCell id="LyVmAa3Y3DXHs4rt1gu2-6" value="model: &lt;b&gt;gpt4o-002&lt;/b&gt;" style="html=1;verticalLabelPosition=bottom;align=center;labelBackgroundColor=#ffffff;verticalAlign=top;strokeWidth=2;strokeColor=#0080F0;shadow=0;dashed=0;shape=mxgraph.ios7.icons.cube;" vertex="1" parent="1">
          <mxGeometry x="570" y="370" width="30" height="30" as="geometry" />
        </mxCell>
        <mxCell id="LyVmAa3Y3DXHs4rt1gu2-10" value="" style="endArrow=classic;html=1;rounded=1;entryX=0;entryY=0.5;entryDx=0;entryDy=0;entryPerimeter=0;exitX=0.998;exitY=0.331;exitDx=0;exitDy=0;exitPerimeter=0;curved=0;fillColor=#dae8fc;strokeColor=#6c8ebf;" edge="1" parent="1" source="LyVmAa3Y3DXHs4rt1gu2-9" target="LyVmAa3Y3DXHs4rt1gu2-8">
          <mxGeometry width="50" height="50" relative="1" as="geometry">
            <mxPoint x="390" y="390" as="sourcePoint" />
            <mxPoint x="440" y="340" as="targetPoint" />
            <Array as="points">
              <mxPoint x="400" y="262" />
              <mxPoint x="400" y="210" />
            </Array>
          </mxGeometry>
        </mxCell>
        <mxCell id="LyVmAa3Y3DXHs4rt1gu2-11" value="" style="endArrow=classic;html=1;rounded=1;entryX=0;entryY=0.5;entryDx=0;entryDy=0;exitX=1;exitY=0.75;exitDx=0;exitDy=0;curved=0;fillColor=#dae8fc;strokeColor=#6c8ebf;" edge="1" parent="1" source="LyVmAa3Y3DXHs4rt1gu2-9" target="LyVmAa3Y3DXHs4rt1gu2-7">
          <mxGeometry width="50" height="50" relative="1" as="geometry">
            <mxPoint x="332" y="250" as="sourcePoint" />
            <mxPoint x="480" y="210" as="targetPoint" />
            <Array as="points">
              <mxPoint x="400" y="312" />
              <mxPoint x="400" y="370" />
            </Array>
          </mxGeometry>
        </mxCell>
        <mxCell id="LyVmAa3Y3DXHs4rt1gu2-13" value="" style="endArrow=classic;html=1;rounded=0;entryX=0;entryY=0.5;entryDx=0;entryDy=0;fillColor=#dae8fc;strokeColor=#6c8ebf;" edge="1" parent="1" target="LyVmAa3Y3DXHs4rt1gu2-9">
          <mxGeometry width="50" height="50" relative="1" as="geometry">
            <mxPoint x="80" y="282" as="sourcePoint" />
            <mxPoint x="110" y="270" as="targetPoint" />
          </mxGeometry>
        </mxCell>
      </root>
    </mxGraphModel>
  </diagram>
</mxfile>
